G75*
G70*
%OFA0B0*%
%FSLAX24Y24*%
%IPPOS*%
%LPD*%
%AMOC8*
5,1,8,0,0,1.08239X$1,22.5*
%
%ADD10C,0.0946*%
%ADD11R,0.0320X0.0950*%
%ADD12R,0.0592X0.0671*%
%ADD13OC8,0.1080*%
%ADD14R,0.0315X0.0433*%
%ADD15R,0.0690X0.0592*%
%ADD16R,0.0580X0.0580*%
%ADD17R,0.0820X0.0820*%
%ADD18OC8,0.0820*%
%ADD19C,0.0631*%
%ADD20C,0.0480*%
D10*
X001550Y009141D03*
D11*
X006550Y006666D03*
X007050Y006666D03*
X007550Y006666D03*
X008050Y006666D03*
X008550Y006666D03*
X009050Y006666D03*
X009550Y006666D03*
X009550Y004616D03*
X009050Y004616D03*
X008550Y004616D03*
X008050Y004616D03*
X007550Y004616D03*
X007050Y004616D03*
X006550Y004616D03*
D12*
X004885Y006641D03*
X004215Y006641D03*
X011715Y012141D03*
X012385Y012141D03*
D13*
X001550Y012141D03*
X001550Y010641D03*
X001550Y013641D03*
D14*
X012255Y009653D03*
X012845Y009653D03*
X012845Y008629D03*
X012255Y008629D03*
D15*
X013615Y006027D03*
X013615Y004255D03*
X010485Y004255D03*
X010485Y006027D03*
D16*
X010200Y008779D03*
X010200Y009566D03*
X010200Y010354D03*
X010200Y011141D03*
X010200Y011929D03*
X010200Y012716D03*
X010200Y013503D03*
X003900Y013503D03*
X003900Y012716D03*
X003900Y011929D03*
X003900Y011141D03*
X003900Y010354D03*
X003900Y009566D03*
X003900Y008779D03*
D17*
X001550Y006141D03*
D18*
X001550Y004141D03*
X001550Y005141D03*
X002550Y005141D03*
X002550Y004141D03*
X002550Y006141D03*
D19*
X004050Y004641D03*
X005050Y004641D03*
D20*
X005150Y005241D03*
X004450Y009041D03*
X004450Y009541D03*
X004450Y010241D03*
X008850Y003841D03*
X010750Y008741D03*
M02*
