G75*
G70*
%OFA0B0*%
%FSLAX24Y24*%
%IPPOS*%
%LPD*%
%AMOC8*
5,1,8,0,0,1.08239X$1,22.5*
%
%ADD10C,0.0000*%
%ADD11R,0.0240X0.0870*%
%ADD12R,0.0512X0.0591*%
%ADD13OC8,0.1000*%
%ADD14R,0.1299X0.1890*%
%ADD15R,0.0610X0.0512*%
%ADD16R,0.0500X0.0500*%
%ADD17R,0.0740X0.0740*%
%ADD18OC8,0.0740*%
%ADD19C,0.0551*%
%ADD20C,0.0100*%
%ADD21C,0.0400*%
D10*
X000550Y002141D02*
X000550Y016137D01*
X014420Y016137D01*
X014420Y002141D01*
X000550Y002141D01*
X001117Y009141D02*
X001119Y009182D01*
X001125Y009223D01*
X001135Y009263D01*
X001148Y009302D01*
X001165Y009339D01*
X001186Y009375D01*
X001210Y009409D01*
X001237Y009440D01*
X001266Y009468D01*
X001299Y009494D01*
X001333Y009516D01*
X001370Y009535D01*
X001408Y009550D01*
X001448Y009562D01*
X001488Y009570D01*
X001529Y009574D01*
X001571Y009574D01*
X001612Y009570D01*
X001652Y009562D01*
X001692Y009550D01*
X001730Y009535D01*
X001766Y009516D01*
X001801Y009494D01*
X001834Y009468D01*
X001863Y009440D01*
X001890Y009409D01*
X001914Y009375D01*
X001935Y009339D01*
X001952Y009302D01*
X001965Y009263D01*
X001975Y009223D01*
X001981Y009182D01*
X001983Y009141D01*
X001981Y009100D01*
X001975Y009059D01*
X001965Y009019D01*
X001952Y008980D01*
X001935Y008943D01*
X001914Y008907D01*
X001890Y008873D01*
X001863Y008842D01*
X001834Y008814D01*
X001801Y008788D01*
X001767Y008766D01*
X001730Y008747D01*
X001692Y008732D01*
X001652Y008720D01*
X001612Y008712D01*
X001571Y008708D01*
X001529Y008708D01*
X001488Y008712D01*
X001448Y008720D01*
X001408Y008732D01*
X001370Y008747D01*
X001334Y008766D01*
X001299Y008788D01*
X001266Y008814D01*
X001237Y008842D01*
X001210Y008873D01*
X001186Y008907D01*
X001165Y008943D01*
X001148Y008980D01*
X001135Y009019D01*
X001125Y009059D01*
X001119Y009100D01*
X001117Y009141D01*
D11*
X006550Y006666D03*
X007050Y006666D03*
X007550Y006666D03*
X008050Y006666D03*
X008550Y006666D03*
X009050Y006666D03*
X009550Y006666D03*
X009550Y004616D03*
X009050Y004616D03*
X008550Y004616D03*
X008050Y004616D03*
X007550Y004616D03*
X007050Y004616D03*
X006550Y004616D03*
D12*
X004885Y006641D03*
X004215Y006641D03*
X011715Y012141D03*
X012385Y012141D03*
D13*
X001550Y012141D03*
X001550Y010641D03*
X001550Y013641D03*
D14*
X011763Y010381D03*
X013337Y010381D03*
X013337Y007901D03*
X011763Y007901D03*
D15*
X010485Y006027D03*
X010485Y004255D03*
X013615Y004255D03*
X013615Y006027D03*
D16*
X010200Y008779D03*
X010200Y009566D03*
X010200Y010354D03*
X010200Y011141D03*
X010200Y011929D03*
X010200Y012716D03*
X010200Y013503D03*
X003900Y013503D03*
X003900Y012716D03*
X003900Y011929D03*
X003900Y011141D03*
X003900Y010354D03*
X003900Y009566D03*
X003900Y008779D03*
D17*
X001550Y006141D03*
D18*
X001550Y005141D03*
X001550Y004141D03*
X002550Y004141D03*
X002550Y005141D03*
X002550Y006141D03*
D19*
X004050Y004641D03*
X005050Y004641D03*
D20*
X006550Y004641D01*
X006550Y004616D01*
X007550Y004616D02*
X007550Y004041D01*
X004050Y004041D01*
X003550Y004541D01*
X003550Y008441D01*
X003850Y008741D01*
X003900Y008779D01*
X004450Y009041D02*
X004450Y006841D01*
X004250Y006641D01*
X004215Y006641D01*
X004650Y006441D02*
X004650Y005241D01*
X004050Y004641D01*
X003050Y004641D02*
X002550Y004141D01*
X003050Y004641D02*
X003050Y011041D01*
X003850Y011841D01*
X003900Y011929D01*
X003950Y011841D01*
X003950Y011541D01*
X009750Y011541D01*
X009750Y007641D01*
X010950Y006441D01*
X010950Y005441D01*
X010150Y004641D01*
X010450Y004341D01*
X010485Y004255D01*
X010150Y004641D02*
X009850Y004941D01*
X009850Y005241D01*
X009250Y005841D01*
X006550Y005841D01*
X006550Y006666D01*
X007250Y007241D02*
X004950Y007241D01*
X004950Y006641D01*
X004885Y006641D01*
X004850Y006641D01*
X004650Y006441D01*
X005150Y005241D02*
X009550Y005241D01*
X009550Y004616D01*
X009550Y003841D01*
X010850Y003841D01*
X011150Y004141D01*
X011150Y006541D01*
X010950Y006741D01*
X010950Y008041D01*
X010250Y008741D01*
X010200Y008779D01*
X010750Y008741D02*
X010750Y009041D01*
X010250Y009541D01*
X010200Y009566D01*
X009550Y010341D02*
X009550Y006666D01*
X009050Y006666D02*
X009050Y009541D01*
X004450Y009541D01*
X003950Y009541D01*
X003900Y009566D01*
X003950Y010341D02*
X003900Y010354D01*
X003950Y010341D02*
X004450Y010341D01*
X004450Y010241D01*
X004450Y010341D02*
X009550Y010341D01*
X009750Y011541D02*
X010550Y011541D01*
X010650Y011641D01*
X010650Y012141D01*
X011715Y012141D01*
X012150Y011941D02*
X012150Y010741D01*
X011850Y010441D01*
X011763Y010381D01*
X012150Y011941D02*
X012350Y012141D01*
X012385Y012141D01*
X013337Y007901D02*
X013250Y007841D01*
X013150Y007741D01*
X013150Y003641D01*
X009450Y003641D01*
X009250Y003841D01*
X009250Y004341D01*
X009050Y004541D01*
X009050Y004616D01*
X008550Y004616D02*
X008550Y004141D01*
X008850Y003841D01*
X008050Y004541D02*
X008050Y004616D01*
X008050Y004541D02*
X007850Y004341D01*
X007850Y004041D01*
X007450Y003641D01*
X001550Y003641D01*
X001550Y004141D01*
X002550Y006141D02*
X002650Y006241D01*
X002650Y012641D01*
X003850Y012641D01*
X003900Y012716D01*
X003950Y012741D01*
X003900Y013503D02*
X003850Y013541D01*
X001550Y013541D01*
X001550Y013641D01*
X001550Y012641D02*
X001550Y012141D01*
X001550Y012641D02*
X002650Y012641D01*
X003900Y011929D02*
X003950Y011941D01*
X007250Y007241D02*
X007350Y007141D01*
X007350Y006941D01*
X007550Y006741D01*
X007550Y006666D01*
X008050Y006666D02*
X008050Y006041D01*
X010450Y006041D01*
X010485Y006027D01*
D21*
X008850Y003841D03*
X005150Y005241D03*
X004450Y009041D03*
X004450Y009541D03*
X004450Y010241D03*
X010750Y008741D03*
M02*
