G75*
G70*
%OFA0B0*%
%FSLAX24Y24*%
%IPPOS*%
%LPD*%
%AMOC8*
5,1,8,0,0,1.08239X$1,22.5*
%
%ADD10C,0.0030*%
%ADD11C,0.0060*%
%ADD12C,0.0040*%
%ADD13R,0.0157X0.0157*%
%ADD14C,0.0080*%
%ADD15C,0.0050*%
%ADD16C,0.0059*%
D10*
X001065Y006656D02*
X001188Y006656D01*
X001127Y006656D02*
X001127Y007027D01*
X001188Y007027D02*
X001065Y007027D01*
X001311Y006965D02*
X001311Y006903D01*
X001372Y006841D01*
X001496Y006841D01*
X001557Y006780D01*
X001557Y006718D01*
X001496Y006656D01*
X001372Y006656D01*
X001311Y006718D01*
X001311Y006965D02*
X001372Y007027D01*
X001496Y007027D01*
X001557Y006965D01*
X001679Y007027D02*
X001864Y007027D01*
X001926Y006965D01*
X001926Y006841D01*
X001864Y006780D01*
X001679Y006780D01*
X001679Y006656D02*
X001679Y007027D01*
X002377Y010656D02*
X002500Y010656D01*
X002562Y010718D01*
X002562Y010841D01*
X002438Y010841D01*
X002315Y010718D02*
X002315Y010965D01*
X002377Y011027D01*
X002500Y011027D01*
X002562Y010965D01*
X002683Y011027D02*
X002930Y010656D01*
X002930Y011027D01*
X003052Y011027D02*
X003237Y011027D01*
X003299Y010965D01*
X003299Y010718D01*
X003237Y010656D01*
X003052Y010656D01*
X003052Y011027D01*
X002683Y011027D02*
X002683Y010656D01*
X002377Y010656D02*
X002315Y010718D01*
X002438Y012156D02*
X002562Y012280D01*
X002562Y012527D01*
X002683Y012465D02*
X002683Y012218D01*
X002745Y012156D01*
X002868Y012156D01*
X002930Y012218D01*
X003052Y012218D02*
X003052Y012465D01*
X003113Y012527D01*
X003237Y012527D01*
X003299Y012465D01*
X003299Y012218D02*
X003237Y012156D01*
X003113Y012156D01*
X003052Y012218D01*
X002930Y012465D02*
X002868Y012527D01*
X002745Y012527D01*
X002683Y012465D01*
X002438Y012156D02*
X002315Y012280D01*
X002315Y012527D01*
X002315Y013656D02*
X002315Y013903D01*
X002438Y014027D01*
X002562Y013903D01*
X002562Y013656D01*
X002683Y013656D02*
X002683Y014027D01*
X002930Y013656D01*
X002930Y014027D01*
X003052Y014027D02*
X003299Y014027D01*
X003175Y014027D02*
X003175Y013656D01*
X002562Y013841D02*
X002315Y013841D01*
X002244Y014656D02*
X002244Y014947D01*
X002292Y014801D02*
X002437Y014656D01*
X002538Y014705D02*
X002587Y014656D01*
X002683Y014656D01*
X002732Y014705D01*
X002732Y014947D01*
X002833Y014947D02*
X002978Y014947D01*
X003026Y014898D01*
X003026Y014801D01*
X002978Y014753D01*
X002833Y014753D01*
X002930Y014753D02*
X003026Y014656D01*
X003128Y014656D02*
X003128Y014850D01*
X003224Y014947D01*
X003321Y014850D01*
X003321Y014656D01*
X003422Y014656D02*
X003422Y014947D01*
X003519Y014850D01*
X003616Y014947D01*
X003616Y014656D01*
X003717Y014705D02*
X003717Y014898D01*
X003765Y014947D01*
X003862Y014947D01*
X003910Y014898D01*
X003910Y014705D01*
X003862Y014656D01*
X003765Y014656D01*
X003717Y014705D01*
X004012Y014947D02*
X004205Y014947D01*
X004108Y014947D02*
X004108Y014656D01*
X004306Y014705D02*
X004355Y014656D01*
X004451Y014656D01*
X004500Y014705D01*
X004500Y014898D01*
X004451Y014947D01*
X004355Y014947D01*
X004306Y014898D01*
X004306Y014705D01*
X004895Y014656D02*
X004895Y014947D01*
X004992Y014850D01*
X005089Y014947D01*
X005089Y014656D01*
X005190Y014705D02*
X005190Y014898D01*
X005238Y014947D01*
X005335Y014947D01*
X005384Y014898D01*
X005384Y014705D01*
X005335Y014656D01*
X005238Y014656D01*
X005190Y014705D01*
X005485Y014656D02*
X005485Y014947D01*
X005630Y014947D01*
X005678Y014898D01*
X005678Y014705D01*
X005630Y014656D01*
X005485Y014656D01*
X005779Y014656D02*
X005779Y014947D01*
X005973Y014947D01*
X006074Y014947D02*
X006074Y014656D01*
X006268Y014656D01*
X005973Y014656D02*
X005779Y014656D01*
X005779Y014801D02*
X005876Y014801D01*
X006663Y014947D02*
X006663Y014656D01*
X007056Y014656D02*
X007056Y014947D01*
X007105Y014850D02*
X007201Y014850D01*
X007250Y014801D01*
X007250Y014656D01*
X007399Y014705D02*
X007399Y014898D01*
X007351Y014850D02*
X007448Y014850D01*
X007547Y014850D02*
X007644Y014850D01*
X007596Y014898D02*
X007596Y014705D01*
X007644Y014656D01*
X007744Y014656D02*
X007889Y014656D01*
X007937Y014705D01*
X007937Y014801D01*
X007889Y014850D01*
X007744Y014850D01*
X007744Y014560D01*
X008038Y014656D02*
X008038Y014705D01*
X008087Y014705D01*
X008087Y014656D01*
X008038Y014656D01*
X008038Y014801D02*
X008038Y014850D01*
X008087Y014850D01*
X008087Y014801D01*
X008038Y014801D01*
X008186Y014656D02*
X008379Y014947D01*
X008674Y014947D02*
X008480Y014656D01*
X008775Y014656D02*
X008969Y014656D01*
X008872Y014656D02*
X008872Y014947D01*
X008775Y014850D01*
X009070Y014898D02*
X009070Y014705D01*
X009263Y014898D01*
X009263Y014705D01*
X009215Y014656D01*
X009118Y014656D01*
X009070Y014705D01*
X009070Y014898D02*
X009118Y014947D01*
X009215Y014947D01*
X009263Y014898D01*
X009364Y014898D02*
X009364Y014705D01*
X009558Y014898D01*
X009558Y014705D01*
X009509Y014656D01*
X009413Y014656D01*
X009364Y014705D01*
X009364Y014898D02*
X009413Y014947D01*
X009509Y014947D01*
X009558Y014898D01*
X009659Y014898D02*
X009659Y014705D01*
X009853Y014898D01*
X009853Y014705D01*
X009804Y014656D01*
X009707Y014656D01*
X009659Y014705D01*
X009659Y014898D02*
X009707Y014947D01*
X009804Y014947D01*
X009853Y014898D01*
X009954Y014801D02*
X010050Y014801D01*
X010002Y014898D02*
X010050Y014947D01*
X010002Y014898D02*
X010002Y014656D01*
X010150Y014656D02*
X010247Y014656D01*
X010198Y014656D02*
X010198Y014850D01*
X010150Y014850D01*
X010198Y014947D02*
X010198Y014995D01*
X010347Y014850D02*
X010347Y014656D01*
X010347Y014753D02*
X010443Y014850D01*
X010492Y014850D01*
X010592Y014801D02*
X010592Y014705D01*
X010640Y014656D01*
X010737Y014656D01*
X010786Y014753D02*
X010592Y014753D01*
X010592Y014801D02*
X010640Y014850D01*
X010737Y014850D01*
X010786Y014801D01*
X010786Y014753D01*
X010887Y014801D02*
X010983Y014801D01*
X010935Y014898D02*
X010935Y014656D01*
X011083Y014656D02*
X011180Y014656D01*
X011132Y014656D02*
X011132Y014947D01*
X011083Y014947D01*
X010983Y014947D02*
X010935Y014898D01*
X011280Y014850D02*
X011328Y014850D01*
X011328Y014656D01*
X011280Y014656D02*
X011376Y014656D01*
X011476Y014705D02*
X011476Y014801D01*
X011524Y014850D01*
X011621Y014850D01*
X011670Y014801D01*
X011670Y014753D01*
X011476Y014753D01*
X011476Y014705D02*
X011524Y014656D01*
X011621Y014656D01*
X011771Y014656D02*
X011916Y014656D01*
X011964Y014705D01*
X011916Y014753D01*
X011819Y014753D01*
X011771Y014801D01*
X011819Y014850D01*
X011964Y014850D01*
X012065Y014705D02*
X012114Y014705D01*
X012114Y014656D01*
X012065Y014656D01*
X012065Y014705D01*
X012213Y014656D02*
X012213Y014850D01*
X012358Y014850D01*
X012406Y014801D01*
X012406Y014656D01*
X012507Y014705D02*
X012507Y014801D01*
X012556Y014850D01*
X012652Y014850D01*
X012701Y014801D01*
X012701Y014753D01*
X012507Y014753D01*
X012507Y014705D02*
X012556Y014656D01*
X012652Y014656D01*
X012850Y014705D02*
X012850Y014898D01*
X012802Y014850D02*
X012899Y014850D01*
X012850Y014705D02*
X012899Y014656D01*
X013144Y014465D02*
X013206Y014527D01*
X013329Y014527D01*
X013391Y014465D01*
X013144Y014218D01*
X013206Y014156D01*
X013329Y014156D01*
X013391Y014218D01*
X013391Y014465D01*
X013144Y014465D02*
X013144Y014218D01*
X013023Y014403D02*
X012899Y014156D01*
X012776Y014403D01*
X013513Y014218D02*
X013574Y014218D01*
X013574Y014156D01*
X013513Y014156D01*
X013513Y014218D01*
X013697Y014218D02*
X013758Y014156D01*
X013882Y014156D01*
X013944Y014218D01*
X013944Y014341D01*
X013882Y014403D01*
X013820Y014403D01*
X013697Y014341D01*
X013697Y014527D01*
X013944Y014527D01*
X013882Y012027D02*
X013697Y012027D01*
X013697Y011656D01*
X013882Y011656D01*
X013944Y011718D01*
X013944Y011965D01*
X013882Y012027D01*
X013575Y012027D02*
X013328Y012027D01*
X013328Y011656D01*
X013575Y011656D01*
X013452Y011841D02*
X013328Y011841D01*
X013207Y011656D02*
X012960Y011656D01*
X012960Y012027D01*
X011328Y014947D02*
X011328Y014995D01*
X007448Y014656D02*
X007399Y014705D01*
X007105Y014850D02*
X007056Y014801D01*
X003321Y014801D02*
X003128Y014801D01*
X002833Y014656D02*
X002833Y014947D01*
X002538Y014947D02*
X002538Y014705D01*
X002437Y014947D02*
X002244Y014753D01*
X001848Y014656D02*
X001654Y014656D01*
X001654Y014947D01*
X001848Y014947D01*
X001751Y014801D02*
X001654Y014801D01*
X001553Y014801D02*
X001360Y014801D01*
X001360Y014656D02*
X001360Y014947D01*
X001258Y014947D02*
X001065Y014947D01*
X001162Y014947D02*
X001162Y014656D01*
X001553Y014656D02*
X001553Y014947D01*
D11*
X001850Y014141D02*
X002050Y014141D01*
X002050Y013941D01*
X002050Y013341D02*
X002050Y013141D01*
X001850Y013141D01*
X001850Y012641D02*
X002050Y012641D01*
X002050Y012441D01*
X002050Y011841D02*
X002050Y011641D01*
X001850Y011641D01*
X001850Y011141D02*
X002050Y011141D01*
X002050Y010941D01*
X002050Y010341D02*
X002050Y010141D01*
X001850Y010141D01*
X001250Y010141D02*
X001050Y010141D01*
X001050Y010341D01*
X001050Y010941D02*
X001050Y011141D01*
X001250Y011141D01*
X001250Y011641D02*
X001050Y011641D01*
X001050Y011841D01*
X001050Y012441D02*
X001050Y012641D01*
X001250Y012641D01*
X001250Y013141D02*
X001050Y013141D01*
X001050Y013341D01*
X001050Y013941D02*
X001050Y014141D01*
X001250Y014141D01*
X004414Y013498D02*
X004414Y013271D01*
X004414Y013441D02*
X004641Y013441D01*
X004641Y013498D02*
X004527Y013612D01*
X004414Y013498D01*
X004641Y013498D02*
X004641Y013271D01*
X004782Y013271D02*
X004782Y013498D01*
X004952Y013498D01*
X005009Y013441D01*
X005009Y013271D01*
X005207Y013328D02*
X005207Y013555D01*
X005150Y013498D02*
X005264Y013498D01*
X005207Y013328D02*
X005264Y013271D01*
X005396Y013271D02*
X005396Y013328D01*
X005453Y013328D01*
X005453Y013271D01*
X005396Y013271D01*
X005382Y012862D02*
X005268Y012862D01*
X005212Y012805D01*
X005212Y012578D01*
X005268Y012521D01*
X005382Y012521D01*
X005439Y012578D01*
X005439Y012805D02*
X005382Y012862D01*
X005070Y012805D02*
X005014Y012862D01*
X004900Y012862D01*
X004843Y012805D01*
X004843Y012578D01*
X004900Y012521D01*
X005014Y012521D01*
X005070Y012578D01*
X004702Y012635D02*
X004702Y012862D01*
X004475Y012862D02*
X004475Y012635D01*
X004588Y012521D01*
X004702Y012635D01*
X004645Y012112D02*
X004532Y012112D01*
X004475Y012055D01*
X004475Y011828D01*
X004532Y011771D01*
X004645Y011771D01*
X004702Y011828D01*
X004702Y011941D01*
X004588Y011941D01*
X004702Y012055D02*
X004645Y012112D01*
X004843Y012112D02*
X005070Y011771D01*
X005070Y012112D01*
X005212Y012112D02*
X005382Y012112D01*
X005439Y012055D01*
X005439Y011828D01*
X005382Y011771D01*
X005212Y011771D01*
X005212Y012112D01*
X004843Y012112D02*
X004843Y011771D01*
X006370Y006346D02*
X006370Y004936D01*
X006460Y005336D02*
X006462Y005365D01*
X006468Y005393D01*
X006477Y005420D01*
X006491Y005445D01*
X006507Y005469D01*
X006527Y005489D01*
X006549Y005508D01*
X006573Y005522D01*
X006600Y005534D01*
X006627Y005542D01*
X006656Y005546D01*
X006684Y005546D01*
X006713Y005542D01*
X006740Y005534D01*
X006767Y005522D01*
X006791Y005508D01*
X006813Y005489D01*
X006833Y005469D01*
X006849Y005445D01*
X006863Y005420D01*
X006872Y005393D01*
X006878Y005365D01*
X006880Y005336D01*
X006878Y005307D01*
X006872Y005279D01*
X006863Y005252D01*
X006849Y005227D01*
X006833Y005203D01*
X006813Y005183D01*
X006791Y005164D01*
X006767Y005150D01*
X006740Y005138D01*
X006713Y005130D01*
X006684Y005126D01*
X006656Y005126D01*
X006627Y005130D01*
X006600Y005138D01*
X006573Y005150D01*
X006549Y005164D01*
X006527Y005183D01*
X006507Y005203D01*
X006491Y005227D01*
X006477Y005252D01*
X006468Y005279D01*
X006462Y005307D01*
X006460Y005336D01*
X009730Y004936D02*
X009730Y006346D01*
D12*
X004845Y004051D02*
X004156Y004051D01*
X004138Y004053D01*
X004121Y004058D01*
X004104Y004066D01*
X004090Y004077D01*
X004078Y004090D01*
X004068Y004105D01*
X004062Y004122D01*
X004058Y004140D01*
X004058Y004158D01*
X004062Y004176D01*
X004068Y004193D01*
X004078Y004208D01*
X004090Y004221D01*
X004104Y004232D01*
X004121Y004240D01*
X004138Y004245D01*
X004156Y004247D01*
X004156Y004248D02*
X004648Y004248D01*
X004666Y004250D01*
X004683Y004255D01*
X004700Y004263D01*
X004714Y004274D01*
X004726Y004287D01*
X004736Y004302D01*
X004742Y004319D01*
X004746Y004337D01*
X004746Y004355D01*
X004742Y004373D01*
X004736Y004390D01*
X004726Y004405D01*
X004714Y004418D01*
X004700Y004429D01*
X004683Y004437D01*
X004666Y004442D01*
X004648Y004444D01*
X004452Y004444D01*
X004452Y004445D02*
X004434Y004447D01*
X004417Y004452D01*
X004400Y004460D01*
X004386Y004471D01*
X004374Y004484D01*
X004364Y004499D01*
X004358Y004516D01*
X004354Y004534D01*
X004354Y004552D01*
X004358Y004570D01*
X004364Y004587D01*
X004374Y004602D01*
X004386Y004615D01*
X004400Y004626D01*
X004417Y004634D01*
X004434Y004639D01*
X004452Y004641D01*
X004648Y004641D01*
X004648Y004642D02*
X004666Y004644D01*
X004683Y004649D01*
X004700Y004657D01*
X004714Y004668D01*
X004726Y004681D01*
X004736Y004696D01*
X004742Y004713D01*
X004746Y004731D01*
X004746Y004749D01*
X004742Y004767D01*
X004736Y004784D01*
X004726Y004799D01*
X004714Y004812D01*
X004700Y004823D01*
X004683Y004831D01*
X004666Y004836D01*
X004648Y004838D01*
X004353Y004838D01*
X004353Y004839D02*
X004335Y004841D01*
X004318Y004846D01*
X004301Y004854D01*
X004287Y004865D01*
X004275Y004878D01*
X004265Y004893D01*
X004259Y004910D01*
X004255Y004928D01*
X004255Y004946D01*
X004259Y004964D01*
X004265Y004981D01*
X004275Y004996D01*
X004287Y005009D01*
X004301Y005020D01*
X004318Y005028D01*
X004335Y005033D01*
X004353Y005035D01*
X004944Y005035D01*
X004962Y005037D01*
X004979Y005042D01*
X004996Y005050D01*
X005010Y005061D01*
X005022Y005074D01*
X005032Y005089D01*
X005038Y005106D01*
X005042Y005124D01*
X005042Y005142D01*
X005038Y005160D01*
X005032Y005177D01*
X005022Y005192D01*
X005010Y005205D01*
X004996Y005216D01*
X004979Y005224D01*
X004962Y005229D01*
X004944Y005231D01*
X004944Y005232D02*
X004353Y005232D01*
X004335Y005234D01*
X004318Y005239D01*
X004301Y005247D01*
X004287Y005258D01*
X004275Y005271D01*
X004265Y005286D01*
X004259Y005303D01*
X004255Y005321D01*
X004255Y005339D01*
X004259Y005357D01*
X004265Y005374D01*
X004275Y005389D01*
X004287Y005402D01*
X004301Y005413D01*
X004318Y005421D01*
X004335Y005426D01*
X004353Y005428D01*
X004353Y005429D02*
X004747Y005429D01*
X004764Y005430D01*
X004781Y005435D01*
X004796Y005442D01*
X004810Y005452D01*
X004822Y005464D01*
X004832Y005478D01*
X004839Y005493D01*
X004844Y005510D01*
X004845Y005527D01*
X004845Y004050D02*
X004863Y004048D01*
X004880Y004043D01*
X004897Y004035D01*
X004911Y004024D01*
X004923Y004011D01*
X004933Y003996D01*
X004939Y003979D01*
X004943Y003961D01*
X004943Y003943D01*
X004939Y003925D01*
X004933Y003908D01*
X004923Y003893D01*
X004911Y003880D01*
X004897Y003869D01*
X004880Y003861D01*
X004863Y003856D01*
X004845Y003854D01*
X004353Y003854D01*
X004353Y003853D02*
X004336Y003852D01*
X004319Y003847D01*
X004304Y003840D01*
X004290Y003830D01*
X004278Y003818D01*
X004268Y003804D01*
X004261Y003789D01*
X004256Y003772D01*
X004255Y003755D01*
X011610Y007738D02*
X011686Y007661D01*
X011840Y007661D01*
X011917Y007738D01*
X011917Y008045D02*
X011840Y008122D01*
X011686Y008122D01*
X011610Y008045D01*
X011610Y007738D01*
X012860Y007661D02*
X012860Y007968D01*
X013013Y008122D01*
X013167Y007968D01*
X013167Y007661D01*
X013167Y007891D02*
X012860Y007891D01*
X012936Y010161D02*
X013090Y010161D01*
X013167Y010238D01*
X012936Y010161D02*
X012860Y010238D01*
X012860Y010545D01*
X012936Y010622D01*
X013090Y010622D01*
X013167Y010545D01*
X011917Y010545D02*
X011840Y010622D01*
X011686Y010622D01*
X011610Y010545D01*
X011610Y010238D01*
X011686Y010161D01*
X011840Y010161D01*
X011917Y010238D01*
D13*
X012550Y009141D03*
D14*
X013133Y006362D02*
X010967Y006362D01*
X010830Y005535D02*
X010830Y004748D01*
X010967Y003921D02*
X013133Y003921D01*
X013270Y004748D02*
X013270Y005535D01*
X011361Y005141D02*
X011363Y005193D01*
X011369Y005245D01*
X011379Y005296D01*
X011392Y005346D01*
X011410Y005396D01*
X011431Y005443D01*
X011455Y005489D01*
X011484Y005533D01*
X011515Y005575D01*
X011549Y005614D01*
X011586Y005651D01*
X011626Y005684D01*
X011669Y005715D01*
X011713Y005742D01*
X011759Y005766D01*
X011808Y005786D01*
X011857Y005802D01*
X011908Y005815D01*
X011959Y005824D01*
X012011Y005829D01*
X012063Y005830D01*
X012115Y005827D01*
X012167Y005820D01*
X012218Y005809D01*
X012268Y005795D01*
X012317Y005776D01*
X012364Y005754D01*
X012409Y005729D01*
X012453Y005700D01*
X012494Y005668D01*
X012533Y005633D01*
X012568Y005595D01*
X012601Y005554D01*
X012631Y005512D01*
X012657Y005467D01*
X012680Y005420D01*
X012699Y005371D01*
X012715Y005321D01*
X012727Y005271D01*
X012735Y005219D01*
X012739Y005167D01*
X012739Y005115D01*
X012735Y005063D01*
X012727Y005011D01*
X012715Y004961D01*
X012699Y004911D01*
X012680Y004862D01*
X012657Y004815D01*
X012631Y004770D01*
X012601Y004728D01*
X012568Y004687D01*
X012533Y004649D01*
X012494Y004614D01*
X012453Y004582D01*
X012409Y004553D01*
X012364Y004528D01*
X012317Y004506D01*
X012268Y004487D01*
X012218Y004473D01*
X012167Y004462D01*
X012115Y004455D01*
X012063Y004452D01*
X012011Y004453D01*
X011959Y004458D01*
X011908Y004467D01*
X011857Y004480D01*
X011808Y004496D01*
X011759Y004516D01*
X011713Y004540D01*
X011669Y004567D01*
X011626Y004598D01*
X011586Y004631D01*
X011549Y004668D01*
X011515Y004707D01*
X011484Y004749D01*
X011455Y004793D01*
X011431Y004839D01*
X011410Y004886D01*
X011392Y004936D01*
X011379Y004986D01*
X011369Y005037D01*
X011363Y005089D01*
X011361Y005141D01*
X003625Y004641D02*
X003627Y004701D01*
X003633Y004762D01*
X003643Y004821D01*
X003657Y004880D01*
X003674Y004938D01*
X003695Y004995D01*
X003720Y005050D01*
X003749Y005103D01*
X003781Y005155D01*
X003816Y005204D01*
X003855Y005251D01*
X003896Y005295D01*
X003940Y005336D01*
X003987Y005375D01*
X004036Y005410D01*
X004087Y005442D01*
X004141Y005471D01*
X004196Y005496D01*
X004253Y005517D01*
X004311Y005534D01*
X004370Y005548D01*
X004429Y005558D01*
X004490Y005564D01*
X004550Y005566D01*
X004610Y005564D01*
X004671Y005558D01*
X004730Y005548D01*
X004789Y005534D01*
X004847Y005517D01*
X004904Y005496D01*
X004959Y005471D01*
X005012Y005442D01*
X005064Y005410D01*
X005113Y005375D01*
X005160Y005336D01*
X005204Y005295D01*
X005245Y005251D01*
X005284Y005204D01*
X005319Y005155D01*
X005351Y005104D01*
X005380Y005050D01*
X005405Y004995D01*
X005426Y004938D01*
X005443Y004880D01*
X005457Y004821D01*
X005467Y004762D01*
X005473Y004701D01*
X005475Y004641D01*
X005473Y004581D01*
X005467Y004520D01*
X005457Y004461D01*
X005443Y004402D01*
X005426Y004344D01*
X005405Y004287D01*
X005380Y004232D01*
X005351Y004179D01*
X005319Y004127D01*
X005284Y004078D01*
X005245Y004031D01*
X005204Y003987D01*
X005160Y003946D01*
X005113Y003907D01*
X005064Y003872D01*
X005013Y003840D01*
X004959Y003811D01*
X004904Y003786D01*
X004847Y003765D01*
X004789Y003748D01*
X004730Y003734D01*
X004671Y003724D01*
X004610Y003718D01*
X004550Y003716D01*
X004490Y003718D01*
X004429Y003724D01*
X004370Y003734D01*
X004311Y003748D01*
X004253Y003765D01*
X004196Y003786D01*
X004141Y003811D01*
X004088Y003840D01*
X004036Y003872D01*
X003987Y003907D01*
X003940Y003946D01*
X003896Y003987D01*
X003855Y004031D01*
X003816Y004078D01*
X003781Y004127D01*
X003749Y004178D01*
X003720Y004232D01*
X003695Y004287D01*
X003674Y004344D01*
X003657Y004402D01*
X003643Y004461D01*
X003633Y004520D01*
X003627Y004581D01*
X003625Y004641D01*
X003448Y004641D02*
X003450Y004707D01*
X003456Y004773D01*
X003466Y004838D01*
X003479Y004902D01*
X003497Y004966D01*
X003518Y005028D01*
X003543Y005089D01*
X003572Y005149D01*
X003604Y005206D01*
X003639Y005262D01*
X003678Y005315D01*
X003720Y005366D01*
X003765Y005414D01*
X003813Y005460D01*
X003863Y005503D01*
X003916Y005542D01*
X003971Y005578D01*
X004028Y005611D01*
X004087Y005641D01*
X004147Y005667D01*
X004209Y005689D01*
X004273Y005708D01*
X004337Y005722D01*
X004402Y005733D01*
X004468Y005740D01*
X004534Y005743D01*
X004599Y005742D01*
X004665Y005737D01*
X004731Y005728D01*
X004795Y005715D01*
X004859Y005699D01*
X004922Y005678D01*
X004983Y005654D01*
X005043Y005627D01*
X005101Y005595D01*
X005157Y005561D01*
X005211Y005523D01*
X005263Y005482D01*
X005312Y005438D01*
X005358Y005391D01*
X005401Y005341D01*
X005442Y005289D01*
X005479Y005234D01*
X005512Y005178D01*
X005543Y005119D01*
X005570Y005059D01*
X005593Y004997D01*
X005612Y004934D01*
X005628Y004870D01*
X005640Y004805D01*
X005648Y004740D01*
X005652Y004674D01*
X005652Y004608D01*
X005648Y004542D01*
X005640Y004477D01*
X005628Y004412D01*
X005612Y004348D01*
X005593Y004285D01*
X005570Y004223D01*
X005543Y004163D01*
X005512Y004104D01*
X005479Y004048D01*
X005442Y003993D01*
X005401Y003941D01*
X005358Y003891D01*
X005312Y003844D01*
X005263Y003800D01*
X005211Y003759D01*
X005157Y003721D01*
X005101Y003687D01*
X005043Y003655D01*
X004983Y003628D01*
X004922Y003604D01*
X004859Y003583D01*
X004795Y003567D01*
X004731Y003554D01*
X004665Y003545D01*
X004599Y003540D01*
X004534Y003539D01*
X004468Y003542D01*
X004402Y003549D01*
X004337Y003560D01*
X004273Y003574D01*
X004209Y003593D01*
X004147Y003615D01*
X004087Y003641D01*
X004028Y003671D01*
X003971Y003704D01*
X003916Y003740D01*
X003863Y003779D01*
X003813Y003822D01*
X003765Y003868D01*
X003720Y003916D01*
X003678Y003967D01*
X003639Y004020D01*
X003604Y004076D01*
X003572Y004133D01*
X003543Y004193D01*
X003518Y004254D01*
X003497Y004316D01*
X003479Y004380D01*
X003466Y004444D01*
X003456Y004509D01*
X003450Y004575D01*
X003448Y004641D01*
D15*
X004097Y008385D02*
X010003Y008385D01*
X009300Y009641D02*
X009300Y011641D01*
X009306Y011699D01*
X009309Y011757D01*
X009308Y011815D01*
X009302Y011873D01*
X009294Y011931D01*
X009281Y011988D01*
X009264Y012043D01*
X009244Y012098D01*
X009221Y012151D01*
X009194Y012203D01*
X009163Y012252D01*
X009129Y012300D01*
X009093Y012345D01*
X009053Y012388D01*
X009011Y012428D01*
X008966Y012465D01*
X008919Y012499D01*
X008870Y012530D01*
X008818Y012558D01*
X008765Y012582D01*
X008711Y012602D01*
X008655Y012619D01*
X008599Y012633D01*
X008541Y012642D01*
X008483Y012648D01*
X008425Y012650D01*
X008367Y012648D01*
X008309Y012642D01*
X008251Y012633D01*
X008195Y012619D01*
X008139Y012602D01*
X008085Y012582D01*
X008032Y012558D01*
X007980Y012530D01*
X007931Y012499D01*
X007884Y012465D01*
X007839Y012428D01*
X007797Y012388D01*
X007757Y012345D01*
X007721Y012300D01*
X007687Y012252D01*
X007656Y012203D01*
X007629Y012151D01*
X007606Y012098D01*
X007586Y012043D01*
X007569Y011988D01*
X007556Y011931D01*
X007548Y011873D01*
X007542Y011815D01*
X007541Y011757D01*
X007544Y011699D01*
X007550Y011641D01*
X007550Y009641D01*
X007552Y009583D01*
X007558Y009524D01*
X007568Y009467D01*
X007581Y009410D01*
X007598Y009354D01*
X007619Y009299D01*
X007644Y009246D01*
X007672Y009195D01*
X007704Y009146D01*
X007738Y009099D01*
X007776Y009054D01*
X007817Y009012D01*
X007860Y008973D01*
X007906Y008937D01*
X007954Y008903D01*
X008004Y008874D01*
X008057Y008847D01*
X008111Y008824D01*
X008166Y008805D01*
X008222Y008790D01*
X008279Y008778D01*
X008337Y008770D01*
X008396Y008766D01*
X008454Y008766D01*
X008513Y008770D01*
X008571Y008778D01*
X008628Y008790D01*
X008684Y008805D01*
X008739Y008824D01*
X008793Y008847D01*
X008846Y008874D01*
X008896Y008903D01*
X008944Y008937D01*
X008990Y008973D01*
X009033Y009012D01*
X009074Y009054D01*
X009112Y009099D01*
X009146Y009146D01*
X009178Y009195D01*
X009206Y009246D01*
X009231Y009299D01*
X009252Y009354D01*
X009269Y009410D01*
X009282Y009467D01*
X009292Y009524D01*
X009298Y009583D01*
X009300Y009641D01*
X010003Y013897D02*
X004097Y013897D01*
D16*
X011214Y013463D02*
X011214Y013319D01*
X011404Y013300D01*
X011425Y013236D01*
X011456Y013176D01*
X011335Y013028D01*
X011436Y012926D01*
X011585Y013047D01*
X011645Y013016D01*
X011729Y013221D01*
X011692Y013242D01*
X011660Y013271D01*
X011636Y013307D01*
X011335Y013307D01*
X011421Y013249D02*
X011683Y013249D01*
X011717Y013192D02*
X011448Y013192D01*
X011422Y013134D02*
X011694Y013134D01*
X011670Y013077D02*
X011375Y013077D01*
X011343Y013019D02*
X011551Y013019D01*
X011639Y013019D02*
X011646Y013019D01*
X011480Y012962D02*
X011401Y012962D01*
X011636Y013307D02*
X011621Y013348D01*
X011615Y013391D01*
X011621Y013435D01*
X011636Y013476D01*
X011661Y013513D01*
X011694Y013542D01*
X011733Y013563D01*
X011776Y013574D01*
X011820Y013575D01*
X011863Y013565D01*
X011902Y013545D01*
X011936Y013516D01*
X011962Y013480D01*
X011978Y013439D01*
X011984Y013395D01*
X011980Y013351D01*
X011965Y013310D01*
X011941Y013273D01*
X011909Y013242D01*
X011871Y013221D01*
X011955Y013016D01*
X012015Y013047D01*
X012164Y012926D01*
X012265Y013028D01*
X012144Y013176D01*
X012175Y013236D01*
X012196Y013300D01*
X012386Y013319D01*
X012386Y013463D01*
X012196Y013483D01*
X012175Y013547D01*
X012144Y013606D01*
X012265Y013755D01*
X012164Y013857D01*
X012015Y013736D01*
X011955Y013766D01*
X011891Y013787D01*
X011872Y013977D01*
X011728Y013977D01*
X011709Y013787D01*
X011645Y013766D01*
X011585Y013736D01*
X011436Y013857D01*
X011335Y013755D01*
X011456Y013606D01*
X011425Y013547D01*
X011404Y013483D01*
X011214Y013463D01*
X011214Y013422D02*
X011619Y013422D01*
X011619Y013365D02*
X011214Y013365D01*
X011376Y013480D02*
X011638Y013480D01*
X011688Y013537D02*
X011422Y013537D01*
X011450Y013595D02*
X012150Y013595D01*
X012178Y013537D02*
X011911Y013537D01*
X011962Y013480D02*
X012224Y013480D01*
X012386Y013422D02*
X011981Y013422D01*
X011981Y013365D02*
X012386Y013365D01*
X012265Y013307D02*
X011964Y013307D01*
X011917Y013249D02*
X012179Y013249D01*
X012152Y013192D02*
X011883Y013192D01*
X011906Y013134D02*
X012178Y013134D01*
X012225Y013077D02*
X011930Y013077D01*
X011954Y013019D02*
X011961Y013019D01*
X012049Y013019D02*
X012257Y013019D01*
X012199Y012962D02*
X012120Y012962D01*
X012182Y013652D02*
X011418Y013652D01*
X011371Y013710D02*
X012229Y013710D01*
X012253Y013767D02*
X012054Y013767D01*
X012125Y013825D02*
X012195Y013825D01*
X011952Y013767D02*
X011648Y013767D01*
X011713Y013825D02*
X011887Y013825D01*
X011882Y013883D02*
X011718Y013883D01*
X011724Y013940D02*
X011876Y013940D01*
X011546Y013767D02*
X011347Y013767D01*
X011405Y013825D02*
X011475Y013825D01*
M02*
